# xmcd
#
# Track frame offsets:
#	150
#	13260
#	29750
#	49567
#
# Disc length: 809 seconds
#
# Revision: 1
# Processed by: cddbd v1.5.2PL0 Copyright (c) Steve Scherf et al.
# Submitted via: audiograbber 1.83.01
#
DISCID=2e032704
DTITLE=Free - My Brother Jake
DYEAR=1973
DGENRE=Rock
TTITLE0=Free - My Brother Jake (1971)
TTITLE1=Free - Wishing Well (1972)
TTITLE2=Free - The Stealer (1970)
TTITLE3=Free - Only My Soul  (1971)
EXTD=Maxi-CD
EXTT0=Remix
EXTT1=Remix
EXTT2=Previously unreleased
EXTT3=
PLAYORDER=
